<?xml version="1.0" encoding="utf-8"?>
<!-- Generator: Adobe Illustrator 19.2.1, SVG Export Plug-In . SVG Version: 6.00 Build 0)  -->
<svg width="250" height="42"  version="1.1" id="layer" xmlns="http://www.w3.org/2000/svg" xmlns:xlink="http://www.w3.org/1999/xlink" x="0px" y="0px"
	 viewBox="0 0 652 652" style="enable-background:new 0 0 652 652;" xml:space="preserve">
<path fill="#fff" d="M168.5,334.3l10.1-20.2l10.1,20.2H168.5z M137,362.1h17.5l6.4-12.8h35.5l6.4,12.8h17.5l-41.5-82.3L137,362.1z M152,280.1
	H86.8v14.9H111v67h16.7v-67H152V280.1z M252.9,316.1h-12v-21h12c8.9,0,13.8,3.7,13.8,10.5C266.7,312.4,261.7,316.1,252.9,316.1
	 M283.6,305.2c0-7.2-2.5-13.4-7.6-17.9c-5-4.7-12.4-7.2-21-7.2h-30.9v81.9h16.7v-29.9h11.8l17.3,29.9h19l-19.4-34
	C281.8,322.5,283.6,311.2,283.6,305.2 M363.9,280.1h-67.7v14.9h38.6l-41.9,67H363v-14.9h-41.2L363.9,280.1z M57.4,313.5
	c-13.4-3.1-18.2-5.4-18.2-11.6c0-5.2,4.9-8.5,11.8-8.5c10.9,0,20.6,7.6,23.3,9.7l7-14.2c-8.7-6.6-18.6-10.1-30.1-10.1
	c-16.7,0-28.5,9.9-28.5,24.3c0,15.7,10.1,21.2,27.6,25.2c14.6,3.3,17.3,6.2,17.3,11.1c0,5.6-5,9.1-13,9.1c-9.7,0-17.7-3.7-27-12.2
	l-6.8,14.6c9.5,8.2,21.2,12.4,33.4,12.4c18.1,0,29.7-9.7,29.7-25.2C83.8,325.4,76.3,318.2,57.4,313.5 M376.2,280.1h27
	c14.4,0,24.8,8.9,24.8,23.9s-10.7,24.1-24.8,24.1h-21.9v34h-5L376.2,280.1L376.2,280.1z M402.8,323.4c12,0,20-7.2,20-19.4
	c0-12.2-8-19.2-20-19.2H381v38.6H402.8z M445.5,280.1h5v77.3h39v4.7h-44.1V280.1z M545.2,333.7h-34.7l-10.7,28.3h-5.4l30.7-81.9h5.4
	l30.7,81.9h-5.4C555.7,362.1,545.2,333.7,545.2,333.7z M527.8,286c0,0-1.7,6.4-3.1,9.9l-12.6,33.2h31.3l-12.2-33.2
	c-1.4-3.5-3.1-9.9-3.1-9.9S527.8,286,527.8,286z M588,326.5l-28-46.4h5.8l19.4,32.2c2.3,4.1,5,9.3,5,9.3h0.2c0,0,2.5-5.2,5-9.3
	l19.4-32.2h5.8L593,326.5v35.5h-5V326.5z"/>
</svg>
